<?xml version="1.0" encoding="UTF-8"?>
<svg width="24px" height="24px" viewBox="0 0 24 24" version="1.1" xmlns="http://www.w3.org/2000/svg" xmlns:xlink="http://www.w3.org/1999/xlink">
    <!-- Generator: Sketch 48.1 (47250) - http://www.bohemiancoding.com/sketch -->
    <title>icon/search</title>
    <desc>Created with Sketch.</desc>
    <defs>
        <path d="M16.5315839,15.666873 C18.0661429,14.0058913 19.0235093,11.7818263 19.0235093,9.33255776 C19.0235093,4.19470774 14.8421429,0 9.68934783,0 C4.5365528,0 0.355186335,4.19470774 0.355186335,9.33255776 C0.355186335,14.4704078 4.5365528,18.6651155 9.68934783,18.6651155 C11.787087,18.6651155 13.7158323,17.9753955 15.2785652,16.8070497 L22.2193354,23.7466274 C22.3882795,23.9155425 22.5994596,24 22.8106398,24 C23.0218199,24 23.2470621,23.9155425 23.4019441,23.7466274 C23.7257702,23.4228569 23.7257702,22.8879923 23.4019441,22.5501622 L16.5315839,15.666873 Z M2.04462733,9.33255776 C2.04462733,5.12374064 5.46574534,1.68915073 9.68934783,1.68915073 C13.8988882,1.68915073 17.3340683,5.10968095 17.3340683,9.33255776 C17.3340683,13.5554346 13.9129503,16.9759648 9.68934783,16.9759648 C5.46574534,16.9759648 2.04462733,13.5413749 2.04462733,9.33255776 Z" id="path-1"></path>
    </defs>
    <g id="icon/magnifying-glass" stroke="none" stroke-width="1" fill="none" fill-rule="evenodd">
        <mask id="mask-2" fill="white">
            <use xlink:href="#path-1"></use>
        </mask>
        <use id="icon/search" fill="#6C777E" fill-rule="nonzero" xlink:href="#path-1"></use>
    </g>
</svg>