<?xml version="1.0" encoding="UTF-8"?>
<svg width="24px" height="24px" viewBox="0 0 24 24" version="1.1" xmlns="http://www.w3.org/2000/svg" xmlns:xlink="http://www.w3.org/1999/xlink" fill="#6C777E" fill-rule="evenodd"><path d="M20.207828,2.24533333 L17.2141075,2.24533333 L17.2141075,1.49686022 C17.2141075,1.04782796 16.9147527,0.748387097 16.4656344,0.748387097 C16.0165161,0.748387097 15.7171613,1.04774194 15.7171613,1.49686022 L15.7171613,2.24533333 L8.23286022,2.24533333 L8.23286022,1.49686022 C8.23286022,1.04782796 7.93350538,0.748387097 7.4843871,0.748387097 C7.03535484,0.748387097 6.73591398,1.04774194 6.73591398,1.49686022 L6.73591398,2.24533333 L3.74219355,2.24533333 C1.64653763,2.24533333 3.55271368e-14,3.89187097 3.55271368e-14,5.98752688 L3.55271368e-14,19.4594409 C3.55271368e-14,21.5550968 1.64653763,23.2016344 3.74219355,23.2016344 L20.207828,23.2016344 C22.3034839,23.2016344 23.9500215,21.5550968 23.9500215,19.4594409 L23.9500215,5.98752688 C23.9500215,3.89187097 22.3034839,2.24533333 20.207828,2.24533333 Z M1.49686022,5.98752688 C1.49686022,4.79002151 2.54468817,3.74219355 3.74219355,3.74219355 L6.73591398,3.74219355 L6.73591398,4.49066667 C6.73591398,4.93969892 7.03526882,5.23913978 7.4843871,5.23913978 C7.93341935,5.23913978 8.23286022,4.93978495 8.23286022,4.49066667 L8.23286022,3.74219355 L15.7172473,3.74219355 L15.7172473,4.49066667 C15.7172473,4.93969892 16.0166022,5.23913978 16.4657204,5.23913978 C16.9148387,5.23913978 17.2141935,4.93978495 17.2141935,4.49066667 L17.2141935,3.74219355 L20.207914,3.74219355 C21.4054194,3.74219355 22.4532473,4.79002151 22.4532473,5.98752688 L22.4532473,8.23286022 L1.49686022,8.23286022 L1.49686022,5.98752688 Z M22.4531613,19.4594409 C22.4531613,20.6569462 21.4053333,21.7047742 20.207828,21.7047742 L3.74219355,21.7047742 C2.54468817,21.7047742 1.49686022,20.6569462 1.49686022,19.4594409 L1.49686022,9.72972043 L22.4531613,9.72972043 L22.4531613,19.4594409 Z M5.23905376,19.4594409 C5.68808602,19.4594409 5.98752688,19.3097634 6.28688172,19.0104086 C6.58623656,18.7110538 6.73591398,18.2619355 6.73591398,17.9625806 C6.73591398,17.6632258 6.58623656,17.2141075 6.28688172,16.9147527 C5.68817204,16.316043 4.79002151,16.316043 4.19122581,16.9147527 C3.89187097,17.2141075 3.74219355,17.5134624 3.74219355,17.9625806 C3.74219355,18.2619355 3.89187097,18.7110538 4.19122581,19.0104086 C4.49058065,19.3097634 4.79002151,19.4594409 5.23905376,19.4594409 Z M5.23905376,14.9687742 C5.68808602,14.9687742 5.98752688,14.8190968 6.28688172,14.5197419 C6.58623656,14.2203871 6.73591398,13.7712688 6.73591398,13.471914 C6.73591398,13.1725591 6.58623656,12.7234409 6.28688172,12.424086 C5.68817204,11.8253763 4.79002151,11.8253763 4.19122581,12.424086 C3.89187097,12.7234409 3.74219355,13.0227957 3.74219355,13.471914 C3.74219355,13.9210323 3.89187097,14.2203871 4.19122581,14.5197419 C4.49058065,14.8190968 4.79002151,14.9687742 5.23905376,14.9687742 Z M9.72972043,19.4594409 C10.1787527,19.4594409 10.4781935,19.3097634 10.7775484,19.0104086 C11.0769032,18.7110538 11.2265806,18.2619355 11.2265806,17.9625806 C11.2265806,17.6632258 11.0769032,17.2141075 10.7775484,16.9147527 C10.1788387,16.316043 9.28068817,16.316043 8.68189247,16.9147527 C8.38253763,17.2141075 8.23286022,17.6632258 8.23286022,17.9625806 C8.23286022,18.2619355 8.38253763,18.7110538 8.68189247,19.0104086 C8.98124731,19.3097634 9.28068817,19.4594409 9.72972043,19.4594409 Z M9.72972043,14.9687742 C10.1787527,14.9687742 10.4781935,14.8190968 10.7775484,14.5197419 C11.0769032,14.2203871 11.2265806,13.7712688 11.2265806,13.471914 C11.2265806,13.1725591 11.0769032,12.7234409 10.7775484,12.424086 C10.1788387,11.8253763 9.28068817,11.8253763 8.68189247,12.424086 C8.38253763,12.7234409 8.23286022,13.1725591 8.23286022,13.471914 C8.23286022,13.7712688 8.38253763,14.2203871 8.68189247,14.5197419 C8.98124731,14.8190968 9.28068817,14.9687742 9.72972043,14.9687742 Z M14.2203011,19.4594409 C14.6693333,19.4594409 14.9687742,19.3097634 15.268129,19.0104086 C15.5674839,18.7110538 15.7171613,18.4116989 15.7171613,17.9625806 C15.7171613,17.5134624 15.5674839,17.2141075 15.268129,16.9147527 C14.6694194,16.316043 13.7712688,16.316043 13.1724731,16.9147527 C12.8731183,17.2141075 12.7234409,17.6632258 12.7234409,17.9625806 C12.7234409,18.2619355 12.8731183,18.7110538 13.1724731,19.0104086 C13.471828,19.3097634 13.7712688,19.4594409 14.2203011,19.4594409 Z M14.2203011,14.9687742 C14.6693333,14.9687742 14.9687742,14.8190968 15.268129,14.5197419 C15.5674839,14.2203871 15.7171613,13.9210323 15.7171613,13.471914 C15.7171613,13.1725591 15.5674839,12.7234409 15.268129,12.424086 C14.6694194,11.8253763 13.7712688,11.8253763 13.1724731,12.424086 C12.8731183,12.7234409 12.7234409,13.1725591 12.7234409,13.471914 C12.7234409,13.7712688 12.8731183,14.2203871 13.1724731,14.5197419 C13.471828,14.8190968 13.7712688,14.9687742 14.2203011,14.9687742 Z M18.7109677,19.4594409 C19.16,19.4594409 19.4594409,19.3097634 19.7587957,19.0104086 C20.0581505,18.7110538 20.207828,18.2619355 20.207828,17.9625806 C20.207828,17.6632258 20.0581505,17.2141075 19.7587957,16.9147527 C19.160086,16.316043 18.2619355,16.316043 17.6631398,16.9147527 C17.3637849,17.2141075 17.2141075,17.5134624 17.2141075,17.9625806 C17.2141075,18.2619355 17.3637849,18.7110538 17.6631398,19.0104086 C17.9624946,19.3097634 18.2619355,19.4594409 18.7109677,19.4594409 Z M18.7109677,14.9687742 C19.16,14.9687742 19.4594409,14.8190968 19.7587957,14.5197419 C20.0581505,14.2203871 20.207828,13.9210323 20.207828,13.471914 C20.207828,13.1725591 20.0581505,12.7234409 19.7587957,12.424086 C19.160086,11.8253763 18.2619355,11.8253763 17.6631398,12.424086 C17.3637849,12.7234409 17.2141075,13.1725591 17.2141075,13.471914 C17.2141075,13.7712688 17.3637849,14.2203871 17.6631398,14.5197419 C17.9624946,14.8190968 18.2619355,14.9687742 18.7109677,14.9687742 Z"/></svg>
